<svg width="21" height="21" viewBox="0 0 21 21" fill="none" xmlns="http://www.w3.org/2000/svg">
<g clip-path="url(#clip0_1_27)">
<path d="M19.273 9.66602L19.2668 9.66329L2.58398 2.74376C2.44366 2.68503 2.29097 2.66199 2.13957 2.67672C1.98817 2.69144 1.84278 2.74346 1.71641 2.82813C1.58289 2.91562 1.47322 3.03493 1.39726 3.17532C1.3213 3.31572 1.28143 3.4728 1.28125 3.63243V8.05782C1.28132 8.27604 1.35752 8.4874 1.49671 8.65547C1.6359 8.82354 1.82936 8.93779 2.04375 8.97852L11.1426 10.6609C11.1783 10.6677 11.2106 10.6868 11.2338 10.7148C11.257 10.7428 11.2697 10.7781 11.2697 10.8145C11.2697 10.8509 11.257 10.8861 11.2338 10.9141C11.2106 10.9422 11.1783 10.9612 11.1426 10.968L2.04414 12.6504C1.82981 12.691 1.63636 12.8051 1.49711 12.973C1.35786 13.141 1.28152 13.3522 1.28125 13.5703V17.9965C1.28115 18.1489 1.31889 18.299 1.39109 18.4332C1.46329 18.5675 1.56769 18.6817 1.69492 18.7656C1.84797 18.8673 2.02758 18.9217 2.21133 18.9219C2.33907 18.9218 2.4655 18.8961 2.5832 18.8465L19.2656 11.9664L19.273 11.9629C19.4976 11.8664 19.6889 11.7062 19.8234 11.5021C19.9578 11.2979 20.0295 11.0589 20.0295 10.8145C20.0295 10.57 19.9578 10.331 19.8234 10.1269C19.6889 9.92275 19.4976 9.76253 19.273 9.66602Z" fill="#0044FF" stroke="#0044FF" stroke-width="0.0390625"/>
</g>
<defs>
<clipPath id="clip0_1_27">
<rect width="20" height="20" fill="white" transform="translate(0.65625 0.796875)"/>
</clipPath>
</defs>
</svg>
